<svg width="904" height="452" viewBox="0 0 904 452" fill="none" xmlns="http://www.w3.org/2000/svg">
<rect width="904" height="452" rx="24" fill="#FFDEE3"/>
<path d="M617.494 63.9172H295.256C289.043 63.9172 284.006 68.954 284.006 75.1672V310.64C284.006 316.853 289.043 321.89 295.256 321.89H617.494C623.708 321.89 628.744 316.853 628.744 310.64V75.1672C628.744 68.954 623.708 63.9172 617.494 63.9172Z" fill="white" stroke="#262329" stroke-width="2" stroke-linecap="round" stroke-linejoin="round"/>
<path d="M628.744 278.511H284.006V314.092C284.006 318.401 287.499 321.893 291.807 321.893H620.943C625.252 321.893 628.744 318.401 628.744 314.092V278.511Z" fill="#FFEBEE" stroke="#262329" stroke-width="2" stroke-linecap="round" stroke-linejoin="round"/>
<path d="M311.891 259.245H600.851" stroke="#FFB8C4" stroke-width="2" stroke-linecap="round" stroke-linejoin="round"/>
<path d="M311.891 259.245H368.443" stroke="#FFB8C4" stroke-width="2" stroke-linecap="round" stroke-linejoin="round"/>
<rect x="414.926" y="322.666" width="83.6669" height="36.4106" fill="#262329"/>
<circle cx="456.908" cy="298.347" r="7.82038" fill="#FFDEE3"/>
<path d="M392.111 357.957C392.111 355.886 393.79 354.207 395.861 354.207H517.956C520.027 354.207 521.706 355.886 521.706 357.957V363.145H392.111V357.957Z" fill="#FFB8C4"/>
<circle cx="368.65" cy="259.245" r="6.82038" fill="#FFB8C4" stroke="#FFB8C4" stroke-width="2"/>
<path d="M229 363.292H710.859" stroke="#262329" stroke-width="2" stroke-linecap="round" stroke-linejoin="round"/>
<path d="M561.428 91.2442C564.928 97.8688 603.26 129.94 594.562 157.032C581.858 164.724 557.929 84.6196 561.428 91.2442Z" fill="#262329" stroke="#262329" stroke-width="2"/>
<path d="M461.806 133.876C461.442 136.808 473.678 140.783 480.931 138.739C474.592 141.733 461.544 146.013 459.768 147.6C457.153 149.936 458.025 155.776 469.052 154.316C482.122 152.586 493.462 146.627 498.589 142.344C497.438 144.42 496.027 147.985 495.579 149.339C493.257 156.348 493.572 174.264 499.425 176.509C504.45 178.437 505.548 161.43 507.284 155.025C508.463 150.677 518.076 136.796 525.922 142.344C535.66 149.23 512.105 165.496 507.953 170.075C505.041 173.287 503.6 178.252 510.565 177.376C517.53 176.5 546.516 162.967 556.974 156.652C565.668 151.403 588.895 132.805 604.275 120.151L590.897 79.1049C574.936 87.4758 543.491 101.324 533.371 105.861C527.884 108.321 510.749 115.238 500.261 118.57C490.087 121.803 479.435 119.881 474.577 121.319C470.721 122.46 473.118 128.047 486.449 128.165C472.322 131.02 462.448 128.708 461.806 133.876Z" fill="#FFEBEE"/>
<path d="M480.931 138.739C473.678 140.783 461.442 136.808 461.806 133.876C462.676 126.867 480.528 133.615 502.936 122.578M480.931 138.739C474.592 141.733 461.544 146.013 459.768 147.6C457.153 149.936 458.025 155.776 469.052 154.316C482.122 152.586 493.462 146.627 498.589 142.344M480.931 138.739C482.517 137.99 483.846 137.322 484.717 136.796C488.199 134.693 499.323 125.602 504.45 121.319M498.589 142.344C502.198 135.829 508.909 126.846 512.283 122.195M498.589 142.344C497.438 144.42 496.027 147.985 495.579 149.339C493.257 156.348 493.572 174.264 499.425 176.509C504.45 178.437 505.548 161.43 507.284 155.025C508.463 150.677 518.076 136.796 525.922 142.344C535.66 149.23 512.105 165.496 507.953 170.075C505.041 173.287 503.6 178.252 510.565 177.376C517.53 176.5 546.516 162.967 556.974 156.652C565.668 151.403 588.894 132.805 604.275 120.151L590.897 79.1049C574.936 87.4758 543.491 101.324 533.371 105.861C527.884 108.321 510.749 115.238 500.261 118.57C490.087 121.803 479.435 119.881 474.577 121.319C470.679 122.473 473.17 128.167 486.883 128.167" stroke="#262329" stroke-width="2" stroke-linecap="round" stroke-linejoin="round"/>
<path d="M560.749 89.4458C575.695 98.7094 598.546 154.066 594.636 158.638L627.617 141.642L627.617 77.2913C627.617 77.2913 627.617 71.333 624.042 68.3538C620.467 65.3747 615.104 65 615.104 65L603.187 65C586.884 73.9437 583.38 78.002 560.749 89.4458Z" fill="#FFC5CE"/>
<path d="M479.813 226.806C479.81 219.824 480.314 199.848 489.258 183.367C499.157 165.125 519.974 171.117 531.033 183.367C542.093 195.616 547.283 221.467 547.283 233.005" stroke="#262329" stroke-width="2" stroke-linecap="round"/>
<path d="M552.095 403.057C550.609 404.284 548.753 404.933 546.835 404.75C520.333 402.22 435.304 387.728 434.102 382.321C432.932 377.052 439.702 242.852 440.574 225.692C440.625 224.691 441.454 223.941 442.454 224.002C451.452 224.552 492.028 227.028 509.841 228.042C527.664 229.055 565.178 230.127 573.442 230.356C574.38 230.382 575.115 231.122 575.167 232.058L583.631 385.97C583.745 388.034 582.101 389.821 580.052 390.094C577.001 390.501 572.269 391.42 566.457 393.495C562.175 395.024 555.56 400.197 552.095 403.057Z" fill="#FFC5CE"/>
<path d="M519.026 227.793C534.478 228.647 565.76 229.959 573.423 230.277C574.389 230.318 575.147 231.112 575.147 232.078V234.241C575.147 234.241 552.301 232.268 533.926 231.518C515.55 230.768 452.477 224.565 452.477 224.565C452.477 224.565 501.338 226.816 519.026 227.793Z" fill="#FF8597"/>
<path d="M569.685 394.737C561.739 397.965 549.323 404.173 549.323 404.173C549.323 404.173 548.826 361.214 548.826 320.489C548.826 279.764 547.088 231.094 547.088 231.094L573.568 232.265C574.472 232.305 575.207 233.018 575.284 233.919C581.768 309.975 584.631 372.79 585.215 386.496C585.285 388.149 584.218 389.599 582.64 390.099C579.705 391.028 574.745 392.681 569.685 394.737Z" fill="#FF8597"/>
<path d="M462.295 237.136C462.944 226.756 465.277 208.223 469.516 197.815C474.791 184.865 489.937 162.516 512.251 173.559C529.293 181.992 527.819 222.947 527.819 244.273" stroke="#262329" stroke-width="2" stroke-linecap="round"/>
<path d="M499.763 176.175C493.91 173.93 493.921 156.682 496.242 149.674L506.944 150.677C505.208 157.082 504.788 178.102 499.763 176.175Z" fill="#FFEBEE"/>
<path d="M495.483 149.555C493.161 156.563 493.305 174.735 499.158 176.98C504.183 178.907 505.45 161.645 507.186 155.241" stroke="#262329" stroke-width="2" stroke-linecap="round" stroke-linejoin="round"/>
<rect x="318.375" y="96.3582" width="15.4918" height="69.1172" rx="7.7459" fill="#FFB8C4"/>
<rect x="351.742" y="96.3582" width="15.4918" height="69.1172" rx="7.7459" fill="#FFB8C4"/>
</svg>
